<svg xmlns="http://www.w3.org/2000/svg" width="64" height="64" viewBox="0 0 64 64">
  <defs>
    <linearGradient id="liquid" x1="0%" y1="0%" x2="0%" y2="100%">
      <stop offset="0%" stop-color="#5fa8a8"/>
      <stop offset="100%" stop-color="#1e7e8f"/>
    </linearGradient>
  </defs>
  <!-- Flask outline -->
  <path d="M24 6h16v4h-2v14.3l11.3 17.6A10 10 0 0 1 39.7 58H24.3A10 10 0 0 1 14.7 41.9L26 24.3V10h-2V6z" fill="none" stroke="#1e7e8f" stroke-width="2.5" stroke-linejoin="round"/>
  <!-- Liquid -->
  <path d="M20 38c6-6 18-6 24 0l2.5 3.9A8 8 0 0 1 39.7 54H24.3A8 8 0 0 1 17.5 41.9z" fill="url(#liquid)" opacity="0.9"/>
  <!-- Bubbles -->
  <circle cx="32" cy="40" r="2" fill="#e8f4f4"/>
  <circle cx="36" cy="44" r="1.5" fill="#e8f4f4"/>
  <circle cx="28" cy="44" r="1.5" fill="#e8f4f4"/>
</svg>
